<svg width="28" height="28" viewBox="0 0 28 28" fill="none" xmlns="http://www.w3.org/2000/svg">
<path d="M24.3927 10.1263C20.7099 6.08703 17.0421 7.75566 14.9054 8.91589C14.7438 9.00361 14.547 8.99493 14.3899 8.89956C10.3193 6.42916 7.03677 8.03684 5.60809 10.2627C1.1861 17.1522 7.17947 24.5642 8.17482 25.7779C9.17016 26.9915 11.2531 27.2382 12.8801 26.3506C14.1817 25.6406 15.6502 25.6313 16.7585 26.3506C21.0151 29.1133 24.1146 22.2893 24.9605 20.3097C24.9829 20.2572 24.9527 20.1995 24.8994 20.179C19.1485 17.9644 21.5211 11.0364 24.3396 10.3004C24.4156 10.2806 24.4456 10.1843 24.3927 10.1263Z" stroke="#121212" stroke-width="0.8"/>
<path d="M19.2151 1.07306C15.6804 1.76672 14.3166 5.00766 14.3069 6.88103C14.3056 7.14066 14.5345 7.33032 14.7907 7.28784C17.3432 6.86444 19.961 4.05997 19.7361 1.45213C19.7139 1.19413 19.4692 1.02319 19.2151 1.07306Z" stroke="#121212" stroke-width="0.8"/>
</svg>
