<svg width="28" height="28" viewBox="0 0 28 28" fill="none" xmlns="http://www.w3.org/2000/svg">
<g clip-path="url(#clip0)">
<path fill-rule="evenodd" clip-rule="evenodd" d="M26.7415 8.20903C23.5418 1.17121 15.2426 -1.94114 8.20478 1.25858C5.12445 2.659 2.65567 5.12783 1.2552 8.20816C0.424752 10.0263 -0.00336303 12.0023 1.98932e-05 14.0011V18.3845C-0.00219651 19.2511 0.342395 20.0827 0.957038 20.6937L2.84308 22.5802L3.09925 23.2867C3.88974 25.3821 5.9125 26.7541 8.1517 26.7135C8.21227 26.7135 8.27337 26.7088 8.33457 26.7042C8.37238 26.7013 8.41022 26.6984 8.448 26.6967L8.47133 26.761C8.82409 27.7359 9.90038 28.2403 10.8752 27.8875L10.9518 27.86C11.9264 27.5086 12.4316 26.4337 12.0802 25.4592L8.38407 15.24C8.02863 14.2671 6.95415 13.7638 5.97916 14.1136L5.90357 14.1412C5.07517 14.4373 4.56598 15.2717 4.68152 16.1439C3.87901 16.7281 3.24693 17.516 2.85054 18.4261C2.81858 18.3634 2.8012 18.2943 2.79968 18.224V14.0012C2.79968 7.81632 7.81347 2.80254 13.9983 2.80254C20.1832 2.80254 25.197 7.81632 25.197 14.0012V18.224C25.1942 18.2571 25.1876 18.2899 25.1774 18.3215C24.7777 17.4549 24.163 16.705 23.3917 16.1429C23.5069 15.2714 22.9983 14.4376 22.1705 14.1412L22.0931 14.1132C21.1189 13.7638 20.0454 14.2672 19.691 15.2396L15.9945 25.4583C15.6428 26.4327 16.1475 27.5077 17.1218 27.8595L17.1983 27.8875C18.1733 28.2392 19.2489 27.735 19.6023 26.7606L19.6256 26.6962C19.6631 26.698 19.7007 26.7009 19.7384 26.7037C19.7998 26.7084 19.8612 26.713 19.9219 26.713C22.161 26.7537 24.1838 25.382 24.9744 23.2867L25.2735 22.4599L27.0396 20.6933C27.6541 20.0824 27.9987 19.251 27.9966 18.3845V14.0012C27.9999 12.0026 27.5718 10.0269 26.7415 8.20903ZM5.6866 15.5045C5.79217 15.2773 5.9847 15.1021 6.22087 15.0183L6.29646 14.9908C6.78698 14.8133 7.3286 15.0668 7.50638 15.5573L11.2024 25.776C11.3789 26.2649 11.1256 26.8043 10.6368 26.9808L10.6355 26.9813L10.5589 27.0088C10.0686 27.1855 9.52768 26.9322 9.34949 26.4424L9.20951 26.0518L5.65394 16.2217C5.56878 15.9878 5.5805 15.7297 5.6866 15.5045ZM4.97455 17.0929V17.091L8.11904 25.7802C6.42869 25.7997 4.8768 24.8485 4.12719 23.3333H4.16265H4.19951C4.23012 23.3333 4.25872 23.3295 4.28728 23.3256C4.30227 23.3237 4.31724 23.3217 4.3325 23.3202C4.34826 23.3187 4.36249 23.3178 4.376 23.3168C4.40049 23.3152 4.42263 23.3137 4.44728 23.3095C4.50841 23.2978 4.56872 23.2822 4.62786 23.2628C4.64034 23.259 4.65282 23.2557 4.66526 23.2524C4.68629 23.2469 4.70719 23.2413 4.72772 23.2334C4.7903 23.2076 4.85096 23.1773 4.90923 23.1429C4.92035 23.1367 4.9317 23.1311 4.94303 23.1256C4.95975 23.1175 4.97643 23.1093 4.99228 23.099C5.66642 22.6642 5.86041 21.7652 5.42559 21.091C5.36907 21.0034 5.30328 20.9221 5.22932 20.8486L3.55746 19.1753C3.8264 18.3626 4.31727 17.6413 4.97455 17.0929ZM1.86646 14.0011V18.2239C1.86541 18.5954 2.01309 18.9518 2.27661 19.2136L4.56953 21.507C4.77391 21.7114 4.77391 22.0427 4.56953 22.2471C4.36516 22.4514 4.03387 22.4514 3.82949 22.2471L1.61682 20.0335C1.1778 19.5972 0.931666 19.0034 0.93324 18.3845V14.0011C0.930207 12.2365 1.28775 10.4899 1.98405 8.86841L2.42639 7.93519C5.77613 1.54415 13.6726 -0.921304 20.0636 2.42843C22.4162 3.66157 24.3372 5.58249 25.5703 7.93513L26.0126 8.86841C26.7089 10.4899 27.0665 12.2365 27.0634 14.0011V18.3845C27.0649 19.0035 26.8188 19.5974 26.3798 20.0339L24.5409 21.8733L24.1676 22.2466C23.9633 22.451 23.632 22.451 23.4276 22.2466C23.2232 22.0422 23.2232 21.7109 23.4276 21.5066L25.7205 19.2132C25.9836 18.9513 26.1311 18.5951 26.1302 18.2239V14.0011C26.1297 12.2277 25.7415 10.4759 24.9926 8.86841L24.5059 7.93513C22.3376 4.18219 18.3327 1.87019 13.9983 1.86926C9.66399 1.87019 5.65907 4.18225 3.49073 7.93519L3.00406 8.86841C2.25521 10.4759 1.86693 12.2277 1.86646 14.0011ZM19.3723 24.6528L18.866 26.0527L18.726 26.4432C18.5485 26.9339 18.0067 27.1878 17.516 27.0103L17.4391 26.9822C16.9496 26.806 16.6956 26.2664 16.8717 25.7769L20.5682 15.5581C20.7452 15.0681 21.286 14.8143 21.7761 14.9913L21.7772 14.9917L21.8546 15.0197C22.3438 15.1955 22.5978 15.7345 22.422 16.2236L22.4216 16.2249L19.3723 24.6528ZM19.9569 25.7802L22.0189 20.0787L23.0991 17.0924C23.7408 17.6279 24.2247 18.3279 24.4989 19.1175L22.7697 20.8472C22.2019 21.4163 22.2019 22.3376 22.7697 22.9068C22.8446 22.9809 22.9273 23.0467 23.0165 23.1028C23.0368 23.1156 23.0577 23.1256 23.0787 23.1357C23.0882 23.1402 23.0976 23.1447 23.107 23.1494C23.1671 23.1831 23.2295 23.2124 23.2937 23.2372C23.3224 23.2478 23.3515 23.2556 23.3808 23.2635L23.4043 23.2698C23.4643 23.2875 23.5253 23.3014 23.5872 23.3113C23.6268 23.3169 23.666 23.3197 23.7057 23.3225C23.7221 23.3225 23.7383 23.325 23.7541 23.3273C23.7694 23.3296 23.7844 23.3319 23.799 23.3319C23.8165 23.3319 23.8329 23.3296 23.8492 23.3274C23.8607 23.3258 23.8722 23.3242 23.8839 23.3235C23.8977 23.3226 23.909 23.3232 23.9194 23.3238C23.9306 23.3244 23.9407 23.3249 23.9516 23.3235C23.2045 24.8436 21.6506 25.7992 19.9569 25.7802Z" fill="#121212"/>
</g>
<defs>
<clipPath id="clip0">
<rect width="28" height="28" fill="white"/>
</clipPath>
</defs>
</svg>
