<svg width="28" height="28" viewBox="0 0 28 28" fill="none" xmlns="http://www.w3.org/2000/svg">
<g clip-path="url(#clip0)">
<path d="M27.9049 16.0078C27.5234 13.946 27.003 11.7987 26.3142 9.44319C25.6297 7.10386 23.529 5.47606 21.0873 5.3926C16.3844 5.23062 11.6154 5.23062 6.91282 5.3926C4.47095 5.47606 2.37032 7.10386 1.6857 9.4433C0.996869 11.7987 0.47658 13.946 0.0950862 16.0079C-0.45178 18.9639 1.41265 21.8329 4.33948 22.5394L4.4418 22.564C4.8887 22.6721 5.33948 22.7254 5.78665 22.7254C6.84681 22.7254 7.88695 22.4255 8.80754 21.8421C10.0231 21.0718 10.8794 19.9028 11.2445 18.5264C12.0723 18.429 12.7666 17.8897 13.084 17.1511C13.3886 17.1516 13.6941 17.1519 14 17.1519C14.3058 17.1519 14.6113 17.1516 14.916 17.1511C15.2334 17.8899 15.9279 18.4292 16.7559 18.5265C17.1281 19.9311 18.008 21.115 19.2595 21.8838C19.2967 21.9067 19.3362 21.9229 19.3764 21.9328C19.4086 21.9406 19.4413 21.9445 19.4737 21.9445C19.6116 21.9445 19.7462 21.875 19.8236 21.749C19.9422 21.556 19.8818 21.3034 19.6888 21.1849C18.6657 20.5563 17.9341 19.6032 17.5937 18.4715C18.5848 18.2179 19.3197 17.3174 19.3197 16.2483C19.3197 14.9831 18.2904 13.9537 17.0251 13.9537C15.7599 13.9537 14.7306 14.9831 14.7306 16.2483C14.7306 16.2761 14.7317 16.3036 14.7327 16.3311C14.2449 16.3317 13.755 16.3317 13.2673 16.3311C13.2683 16.3036 13.2694 16.2761 13.2694 16.2483C13.2694 14.9831 12.2401 13.9537 10.9748 13.9537C9.7096 13.9537 8.68029 14.9831 8.68029 16.2483C8.68029 17.3176 9.41549 18.2182 10.4069 18.4716C10.073 19.5799 9.3613 20.5201 8.36857 21.1493C7.24903 21.8587 5.92293 22.078 4.63315 21.7664L4.53214 21.7422C2.02886 21.1379 0.434198 18.6847 0.901769 16.1573C1.27818 14.123 1.79218 12.0022 2.47308 9.67375C3.05801 7.67484 4.85348 6.28389 6.94098 6.21258C7.23093 6.20257 7.52109 6.19322 7.81154 6.18447C7.81963 6.38407 7.83204 6.58674 7.84998 6.79165C7.91905 7.55606 8.36338 8.22712 9.03854 8.58674C9.10001 8.61944 9.16596 8.63498 9.23104 8.63498C9.23669 8.63498 9.24234 8.63486 9.24797 8.63463C9.38855 8.6288 9.52246 8.55072 9.59339 8.41754C9.69987 8.21761 9.62412 7.96922 9.42419 7.86269C8.99413 7.63366 8.71108 7.20563 8.66705 6.71892C8.65059 6.53091 8.63911 6.34481 8.63151 6.1615C12.2008 6.06837 15.7991 6.06837 19.3685 6.1615C19.361 6.34475 19.3495 6.53063 19.3331 6.71804C19.2685 7.43701 18.6784 8.00028 17.9602 8.02817C15.5983 8.12054 13.2082 8.13005 10.8563 8.0565C10.6298 8.04802 10.4406 8.22723 10.4335 8.45364C10.4264 8.68004 10.6042 8.86931 10.8306 8.87636C11.8811 8.90923 12.9387 8.92564 13.9986 8.92564C15.3307 8.92564 16.6661 8.89966 17.9922 8.84782C19.1211 8.80401 20.0487 7.91995 20.1501 6.7905C20.168 6.5863 20.1804 6.38391 20.1884 6.18441C20.4789 6.19316 20.7692 6.20251 21.0591 6.21252C23.1464 6.28383 24.9419 7.67479 25.5269 9.67364C26.2079 12.0021 26.7219 14.1229 27.0982 16.1572C27.5658 18.6847 25.9712 21.1379 23.4677 21.7422L23.3655 21.7668C22.6014 21.9514 21.8297 21.9505 21.0721 21.7639C20.8523 21.7098 20.63 21.8441 20.5758 22.0641C20.5321 22.2415 20.6111 22.4203 20.7586 22.5113C20.794 22.5332 20.8334 22.5499 20.876 22.5604C21.7625 22.7787 22.6649 22.7799 23.5581 22.5641L23.6603 22.5395C26.5873 21.8328 28.4518 18.9638 27.9049 16.0078ZM17.0251 14.7738C17.8381 14.7738 18.4994 15.4352 18.4994 16.2481C18.4994 17.061 17.838 17.7223 17.0251 17.7223C16.2123 17.7223 15.5509 17.0609 15.5509 16.2481C15.5509 15.4352 16.2122 14.7738 17.0251 14.7738ZM9.50053 16.2481C9.50053 15.4352 10.1619 14.7738 10.9748 14.7738C11.7876 14.7738 12.449 15.4352 12.449 16.2481C12.449 17.061 11.7876 17.7223 10.9748 17.7223C10.1619 17.7223 9.50053 17.061 9.50053 16.2481Z" fill="#121212"/>
<path d="M19.4737 21.9445C19.4413 21.9445 19.4086 21.9406 19.3764 21.9328L20.7586 22.5113C20.6111 22.4203 20.5321 22.2415 20.5758 22.0641C20.63 21.8441 20.8523 21.7098 21.0721 21.7639L19.6888 21.1849C19.8818 21.3034 19.9422 21.556 19.8236 21.749C19.7462 21.875 19.6116 21.9445 19.4737 21.9445Z" fill="#121212"/>
<path d="M9.59339 8.41754C9.52246 8.55072 9.38855 8.6288 9.24797 8.63463C9.68314 8.7303 10.3856 8.86391 10.8306 8.87636C10.6042 8.86931 10.4264 8.68004 10.4335 8.45364C10.4406 8.22723 10.6298 8.04802 10.8563 8.0565C10.4456 8.04473 9.73045 7.92239 9.42419 7.86269C9.62412 7.96922 9.69987 8.21761 9.59339 8.41754Z" fill="#121212"/>
<path d="M7.732 10.6276C7.70592 10.6269 7.67988 10.6262 7.6538 10.6256C7.65314 10.5995 7.65243 10.5734 7.65172 10.5473C7.62739 9.6506 6.90722 8.94777 6.01194 8.94739H5.98777C5.09266 8.94783 4.3725 9.6506 4.34816 10.5474C4.34745 10.5734 4.34674 10.5995 4.34608 10.6256C4.32 10.6262 4.29397 10.6269 4.26788 10.6276C3.37118 10.6519 2.66835 11.3721 2.66797 12.2674V12.2916C2.66841 13.1867 3.37118 13.9069 4.26793 13.9312C4.29397 13.9319 4.32005 13.9326 4.34608 13.9333C4.34674 13.9594 4.34745 13.9855 4.34816 14.0115C4.3725 14.9082 5.09266 15.611 5.98794 15.6114H6.01211C6.90722 15.611 7.62739 14.9082 7.65172 14.0115C7.65243 13.9854 7.65314 13.9594 7.6538 13.9333C7.67988 13.9326 7.70592 13.9319 7.732 13.9312C8.6287 13.9069 9.33153 13.1867 9.33191 12.2914V12.2673C9.33147 11.3721 8.6287 10.652 7.732 10.6276ZM8.51161 12.2913C8.51139 12.7389 8.15916 13.099 7.7098 13.1113C7.55476 13.1155 7.39962 13.1191 7.24458 13.1222C7.02447 13.1265 6.84701 13.304 6.84263 13.5241C6.83957 13.6792 6.83591 13.8343 6.83175 13.9893C6.81956 14.4388 6.45934 14.791 6.01194 14.7912H5.98816C5.54055 14.791 5.18038 14.4388 5.16813 13.9894C5.16392 13.8343 5.16031 13.6792 5.15725 13.5241C5.15287 13.304 4.97547 13.1265 4.7553 13.1222C4.60026 13.1191 4.44512 13.1154 4.29008 13.1113C3.84067 13.0991 3.48843 12.7389 3.48821 12.2915V12.2677C3.48843 11.8201 3.84067 11.4599 4.29003 11.4477C4.44506 11.4435 4.60016 11.4398 4.75519 11.4368C4.97536 11.4325 5.15282 11.255 5.15719 11.0348C5.16026 10.8797 5.16392 10.7246 5.16808 10.5696C5.18027 10.1201 5.54049 9.76791 5.98788 9.76769H6.01167C6.45928 9.76791 6.81945 10.1201 6.8317 10.5695C6.83591 10.7246 6.83952 10.8797 6.84258 11.0348C6.84695 11.255 7.02441 11.4325 7.24458 11.4368C7.39962 11.4398 7.55465 11.4435 7.70969 11.4477C8.1591 11.4599 8.51134 11.8201 8.51156 12.2675V12.2913H8.51161Z" fill="#121212"/>
<path d="M23.0594 12.6267C23.4822 12.6267 23.8797 12.4621 24.1786 12.1631C24.4776 11.8642 24.6422 11.4667 24.6422 11.0439C24.6422 10.6211 24.4776 10.2236 24.1786 9.9247C23.8797 9.62572 23.4822 9.46106 23.0594 9.46106C22.6366 9.46106 22.2391 9.62572 21.9402 9.9247C21.6412 10.2236 21.4766 10.6211 21.4766 11.0439C21.4766 11.4667 21.6412 11.8642 21.9402 12.1631C22.2391 12.462 22.6366 12.6267 23.0594 12.6267ZM22.5202 10.5047C22.6642 10.3607 22.8557 10.2814 23.0594 10.2814C23.2631 10.2814 23.4546 10.3607 23.5985 10.5047C23.8958 10.8021 23.8958 11.2858 23.5985 11.583C23.4545 11.727 23.263 11.8063 23.0594 11.8063C22.8557 11.8063 22.6642 11.727 22.5202 11.583C22.2229 11.2858 22.2229 10.802 22.5202 10.5047Z" fill="#121212"/>
<path d="M19.4675 12.3985C19.1686 12.6974 19.0039 13.0949 19.0039 13.5177C19.0039 13.9404 19.1686 14.3379 19.4675 14.6369C19.7665 14.9358 20.164 15.1005 20.5868 15.1005C21.0095 15.1005 21.407 14.9358 21.706 14.6369C22.0049 14.3379 22.1695 13.9404 22.1695 13.5177C22.1695 13.0949 22.0049 12.6974 21.706 12.3985C21.407 12.0995 21.0095 11.9348 20.5868 11.9348C20.164 11.9348 19.7665 12.0995 19.4675 12.3985ZM21.1259 14.0568C20.8286 14.3541 20.3449 14.3541 20.0476 14.0568C19.7503 13.7595 19.7503 13.2758 20.0476 12.9785C20.1963 12.8298 20.3915 12.7555 20.5868 12.7555C20.7821 12.7555 20.9773 12.8298 21.1259 12.9785C21.4232 13.2758 21.4232 13.7595 21.1259 14.0568Z" fill="#121212"/>
<path d="M12.8503 10.3557C12.207 10.3557 11.6836 10.8791 11.6836 11.5225C11.6836 12.1658 12.207 12.6892 12.8503 12.6892H15.2773C15.9206 12.6892 16.444 12.1658 16.444 11.5225C16.444 10.8791 15.9206 10.3557 15.2773 10.3557H12.8503ZM15.6237 11.5225C15.6237 11.7135 15.4683 11.8689 15.2773 11.8689H12.8503C12.6593 11.8689 12.5039 11.7135 12.5039 11.5225C12.5039 11.3315 12.6593 11.1761 12.8503 11.1761H15.2773C15.4683 11.176 15.6237 11.3315 15.6237 11.5225Z" fill="#121212"/>
</g>
<defs>
<clipPath id="clip0">
<rect width="28" height="28" fill="white"/>
</clipPath>
</defs>
</svg>
