<svg width="28" height="28" viewBox="0 0 28 28" fill="none" xmlns="http://www.w3.org/2000/svg">
<g clip-path="url(#clip0)">
<path fill-rule="evenodd" clip-rule="evenodd" d="M20.4167 7.60156H7.58334H6.41667H2.91667H1.75001C1.28588 7.60156 0.840758 7.78541 0.512569 8.11266C0.184381 8.43991 6.34537e-06 8.88376 6.34537e-06 9.34656V16.3265C-0.000642678 16.5669 0.048503 16.8047 0.144363 17.0253C0.240223 17.2458 0.38073 17.4441 0.557077 17.608C0.733424 17.7718 0.941809 17.8975 1.16917 17.9773C1.39653 18.0571 1.63797 18.0892 1.87834 18.0715L2.33334 19.9561C2.36528 20.0852 2.44058 20.1994 2.54672 20.2799C2.65286 20.3603 2.78342 20.4021 2.91667 20.3982H6.41667C6.54993 20.4021 6.68049 20.3603 6.78663 20.2799C6.89276 20.1994 6.96807 20.0852 7.00001 19.9561L7.45501 18.0715H20.545L21 19.9561C21.0319 20.0852 21.1073 20.1994 21.2134 20.2799C21.3195 20.3603 21.4501 20.4021 21.5833 20.3982H25.0833C25.2166 20.4021 25.3472 20.3603 25.4533 20.2799C25.5594 20.1994 25.6347 20.0852 25.6667 19.9561C26.2092 17.7923 26.0867 18.0715 26.25 18.0715C26.7141 18.0715 27.1593 17.8877 27.4874 17.5604C27.8156 17.2332 28 16.7893 28 16.3265V9.34656C28 8.88376 27.8156 8.43991 27.4874 8.11266C27.1593 7.78541 26.7141 7.60156 26.25 7.60156H25.0833H21.5833H20.4167ZM1.33753 8.93526C1.22813 9.04434 1.16667 9.19229 1.16667 9.34656V14.5815H26.8333V9.34656C26.8333 9.19229 26.7719 9.04434 26.6625 8.93526C26.5531 8.82617 26.4047 8.76489 26.25 8.76489H1.75001C1.5953 8.76489 1.44692 8.82617 1.33753 8.93526ZM3.37167 19.2349H5.96167L6.25334 18.0715H3.08001L3.37167 19.2349ZM22.0383 19.2349H24.6283L24.92 18.0715H21.7467L22.0383 19.2349ZM26.6625 16.7378C26.7719 16.6288 26.8333 16.4808 26.8333 16.3265V15.7449H1.16667V16.3265C1.16667 16.4808 1.22813 16.6288 1.33753 16.7378C1.44692 16.8469 1.5953 16.9082 1.75001 16.9082H26.25C26.4047 16.9082 26.5531 16.8469 26.6625 16.7378Z" fill="#121212"/>
<path d="M13.4154 9.927H2.91536C2.76065 9.927 2.61228 9.98828 2.50289 10.0974C2.39349 10.2065 2.33203 10.3544 2.33203 10.5087V12.8353C2.33203 12.9896 2.39349 13.1375 2.50289 13.2466C2.61228 13.3557 2.76065 13.417 2.91536 13.417H13.4154C13.5701 13.417 13.7184 13.3557 13.8278 13.2466C13.9372 13.1375 13.9987 12.9896 13.9987 12.8353V10.5087C13.9987 10.3544 13.9372 10.2065 13.8278 10.0974C13.7184 9.98828 13.5701 9.927 13.4154 9.927ZM12.832 12.2537H3.4987V11.0903H12.832V12.2537Z" fill="#121212"/>
<path d="M23.918 9.927C23.5719 9.927 23.2335 10.0293 22.9457 10.2211C22.6579 10.4128 22.4336 10.6854 22.3012 11.0042C22.1687 11.3231 22.1341 11.6739 22.2016 12.0124C22.2691 12.3509 22.4358 12.6619 22.6805 12.9059C22.9253 13.1499 23.2371 13.3161 23.5766 13.3835C23.916 13.4508 24.2679 13.4162 24.5877 13.2842C24.9074 13.1521 25.1808 12.9284 25.3731 12.6415C25.5653 12.3545 25.668 12.0171 25.668 11.672C25.668 11.2092 25.4836 10.7653 25.1554 10.4381C24.8272 10.1108 24.3821 9.927 23.918 9.927ZM23.918 12.2537C23.7633 12.2537 23.6149 12.1924 23.5055 12.0833C23.3961 11.9742 23.3346 11.8263 23.3346 11.672C23.3346 11.5177 23.3961 11.3698 23.5055 11.2607C23.6149 11.1516 23.7633 11.0903 23.918 11.0903C24.0727 11.0903 24.2211 11.1516 24.3305 11.2607C24.4399 11.3698 24.5013 11.5177 24.5013 11.672C24.5013 11.8263 24.4399 11.9742 24.3305 12.0833C24.2211 12.1924 24.0727 12.2537 23.918 12.2537Z" fill="#121212"/>
<path d="M19.25 9.927C18.9039 9.927 18.5655 10.0293 18.2778 10.2211C17.99 10.4128 17.7657 10.6854 17.6332 11.0042C17.5008 11.3231 17.4661 11.6739 17.5336 12.0124C17.6012 12.3509 17.7678 12.6619 18.0126 12.9059C18.2573 13.1499 18.5691 13.3161 18.9086 13.3835C19.2481 13.4508 19.5999 13.4162 19.9197 13.2842C20.2395 13.1521 20.5128 12.9284 20.7051 12.6415C20.8974 12.3545 21 12.0171 21 11.672C21 11.2092 20.8156 10.7653 20.4875 10.4381C20.1593 10.1108 19.7141 9.927 19.25 9.927ZM19.25 12.2537C19.0953 12.2537 18.9469 12.1924 18.8375 12.0833C18.7281 11.9742 18.6667 11.8263 18.6667 11.672C18.6667 11.5177 18.7281 11.3698 18.8375 11.2607C18.9469 11.1516 19.0953 11.0903 19.25 11.0903C19.4047 11.0903 19.5531 11.1516 19.6625 11.2607C19.7719 11.3698 19.8333 11.5177 19.8333 11.672C19.8333 11.8263 19.7719 11.9742 19.6625 12.0833C19.5531 12.1924 19.4047 12.2537 19.25 12.2537Z" fill="#121212"/>
</g>
<defs>
<clipPath id="clip0">
<rect width="28" height="28" fill="white"/>
</clipPath>
</defs>
</svg>
