<svg width="30" height="30" viewBox="0 0 30 30" fill="none" xmlns="http://www.w3.org/2000/svg">
<g clip-path="url(#clip0)">
<path d="M22.5387 20.7717L27.8925 26.1242L26.1238 27.893L20.7713 22.5392C18.7797 24.1358 16.3025 25.0041 13.75 25.0005C7.54 25.0005 2.5 19.9605 2.5 13.7505C2.5 7.54049 7.54 2.50049 13.75 2.50049C19.96 2.50049 25 7.54049 25 13.7505C25.0036 16.303 24.1353 18.7802 22.5387 20.7717ZM20.0312 19.8442C21.6176 18.2128 22.5036 16.026 22.5 13.7505C22.5 8.91549 18.5837 5.00049 13.75 5.00049C8.915 5.00049 5 8.91549 5 13.7505C5 18.5842 8.915 22.5005 13.75 22.5005C16.0255 22.5041 18.2124 21.6181 19.8438 20.0317L20.0312 19.8442Z" fill="#121212"/>
</g>
<defs>
<clipPath id="clip0">
<rect width="30" height="30" fill="white"/>
</clipPath>
</defs>
</svg>
