<svg width="28" height="28" viewBox="0 0 28 28" fill="none" xmlns="http://www.w3.org/2000/svg">
<path d="M21.0013 0H7.0013C5.7133 0.00151667 4.66949 1.04533 4.66797 2.33333V23.8C4.66937 24.9084 5.44899 25.8634 6.53464 26.0867V28H9.33463V26.1333H18.668V28H21.468V26.0867C22.5536 25.8634 23.3332 24.9084 23.3346 23.8V2.33333C23.3331 1.04533 22.2893 0.00151667 21.0013 0ZM8.4013 27.0667H7.46797V26.1333H8.4013V27.0667ZM20.5346 27.0667H19.6013V26.1333H20.5346V27.0667ZM22.4013 23.8C22.4013 24.5732 21.7745 25.2 21.0013 25.2H7.0013C6.22809 25.2 5.6013 24.5732 5.6013 23.8V2.33333C5.6013 1.56012 6.22809 0.933333 7.0013 0.933333H21.0013C21.7745 0.933333 22.4013 1.56012 22.4013 2.33333V23.8Z" fill="#121212"/>
<path d="M14.0018 9.33337C9.87812 9.33337 6.53516 12.6763 6.53516 16.8C6.54006 20.9218 9.88011 24.2618 14.0018 24.2667C18.1255 24.2667 21.4685 20.9237 21.4685 16.8C21.4685 12.6763 18.1255 9.33337 14.0018 9.33337ZM14.0018 23.3334C10.3936 23.3334 7.46849 20.4083 7.46849 16.8C7.47234 13.1934 10.3952 10.2706 14.0018 10.2667C17.6101 10.2667 20.5352 13.1918 20.5352 16.8C20.5352 20.4083 17.6101 23.3334 14.0018 23.3334Z" fill="#121212"/>
<path d="M13.9984 11.2003C10.9057 11.2003 8.39844 13.7075 8.39844 16.8003C8.40176 19.8918 10.907 22.397 13.9984 22.4003C17.0912 22.4003 19.5984 19.8931 19.5984 16.8003C19.5984 13.7075 17.0912 11.2003 13.9984 11.2003ZM13.9984 21.467C11.4211 21.467 9.33177 19.3777 9.33177 16.8003C9.33463 14.2241 11.4223 12.1365 13.9984 12.1337C16.5758 12.1337 18.6651 14.223 18.6651 16.8003C18.6651 19.3777 16.5758 21.467 13.9984 21.467Z" fill="#121212"/>
<path d="M14.001 1.86694C12.1969 1.86694 10.7344 3.32948 10.7344 5.13361C10.7364 6.93687 12.1978 8.39824 14.001 8.40028C15.8052 8.40028 17.2677 6.93774 17.2677 5.13361C17.2677 3.32948 15.8052 1.86694 14.001 1.86694ZM14.001 7.46694C12.7124 7.46694 11.6677 6.42225 11.6677 5.13361C11.6692 3.84561 12.713 2.80179 14.001 2.80028C15.2897 2.80028 16.3344 3.84497 16.3344 5.13361C16.3344 6.42225 15.2897 7.46694 14.001 7.46694Z" fill="#121212"/>
<path d="M14.0016 3.73315C13.2284 3.73315 12.6016 4.35995 12.6016 5.13315C12.6016 5.90636 13.2284 6.53315 14.0016 6.53315C14.7748 6.53315 15.4016 5.90636 15.4016 5.13315C15.4016 4.35995 14.7748 3.73315 14.0016 3.73315ZM14.0016 5.59982C13.7438 5.59982 13.5349 5.39087 13.5349 5.13315C13.5349 4.87544 13.7438 4.66649 14.0016 4.66649C14.2593 4.66649 14.4682 4.87544 14.4682 5.13315C14.4682 5.39087 14.2593 5.59982 14.0016 5.59982Z" fill="#121212"/>
<path d="M7.46849 1.86694H6.53516V2.80028H7.46849V1.86694Z" fill="#121212"/>
<path d="M21.4685 1.86694H20.5352V2.80028H21.4685V1.86694Z" fill="#121212"/>
<path d="M7.46849 23.3334H6.53516V24.2667H7.46849V23.3334Z" fill="#121212"/>
<path d="M21.4685 23.3334H20.5352V24.2667H21.4685V23.3334Z" fill="#121212"/>
<path d="M14.0013 14.4664C12.7127 14.4664 11.668 15.5111 11.668 16.7998C11.6695 18.0878 12.7133 19.1316 14.0013 19.1331C15.2899 19.1331 16.3346 18.0884 16.3346 16.7998C16.3346 15.5111 15.2899 14.4664 14.0013 14.4664ZM14.0013 18.1998C13.2281 18.1998 12.6013 17.573 12.6013 16.7998C12.6013 16.0266 13.2281 15.3998 14.0013 15.3998C14.7745 15.3998 15.4013 16.0266 15.4013 16.7998C15.4013 17.573 14.7745 18.1998 14.0013 18.1998Z" fill="#121212"/>
</svg>
