<svg width="28" height="28" viewBox="0 0 28 28" fill="none" xmlns="http://www.w3.org/2000/svg">
<path d="M24.8281 8.75H11.2656V4.375C11.2656 4.13437 11.0688 3.9375 10.8281 3.9375H2.40625C2.16562 3.9375 1.96875 4.13437 1.96875 4.375V23.625C1.96875 23.8656 2.16562 24.0625 2.40625 24.0625H24.8281C25.0688 24.0625 25.2656 23.8656 25.2656 23.625V23.2094C25.2656 22.2305 24.4727 21.4375 23.4937 21.4375H19.5781V20.5625H24.8281C25.4953 20.5625 26.0312 20.0211 26.0312 19.3594V9.95312C26.0312 9.29141 25.4898 8.75 24.8281 8.75ZM10.3906 8.83203C9.94219 9.00703 9.625 9.44453 9.625 9.95312V19.3594C9.625 19.868 9.94219 20.3055 10.3906 20.4805V23.1875H2.84375V4.8125H10.3906V8.83203ZM23.4937 22.3125C23.9805 22.3125 24.3797 22.7008 24.3906 23.1875H11.2656C11.2766 22.7008 11.6758 22.3125 12.1625 22.3125H23.4937ZM11.2656 21.6836V20.5625H16.0781V21.4375H12.1625C11.8344 21.4375 11.5281 21.525 11.2656 21.6836ZM16.9531 21.4375V20.5625H18.7031V21.4375H16.9531ZM25.1562 19.3594C25.1562 19.5398 25.0086 19.6875 24.8281 19.6875H10.8281C10.6477 19.6875 10.5 19.5398 10.5 19.3594V18.8125H25.1562V19.3594ZM25.1562 17.9375H10.5V9.95312C10.5 9.77266 10.6477 9.625 10.8281 9.625H24.8281C25.0086 9.625 25.1562 9.77266 25.1562 9.95312V17.9375Z" fill="#121212"/>
<path d="M8.80469 5.74219H4.42969C4.18906 5.74219 3.99219 5.93906 3.99219 6.17969V7.92969C3.99219 8.17031 4.18906 8.36719 4.42969 8.36719H8.80469C9.04531 8.36719 9.24219 8.17031 9.24219 7.92969V6.17969C9.24219 5.93906 9.04531 5.74219 8.80469 5.74219ZM8.36719 7.49219H4.86719V6.61719H8.36719V7.49219Z" fill="#121212"/>
<path d="M6.61719 10.5547C5.65469 10.5547 4.86719 11.3422 4.86719 12.3047C4.86719 13.2672 5.65469 14.0547 6.61719 14.0547C7.57969 14.0547 8.36719 13.2672 8.36719 12.3047C8.36719 11.3422 7.57969 10.5547 6.61719 10.5547ZM6.61719 13.1797C6.13594 13.1797 5.74219 12.7859 5.74219 12.3047C5.74219 11.8234 6.13594 11.4297 6.61719 11.4297C7.09844 11.4297 7.49219 11.8234 7.49219 12.3047C7.49219 12.7859 7.09844 13.1797 6.61719 13.1797Z" fill="#121212"/>
<path d="M6.61719 15.3672C5.89531 15.3672 5.30469 15.9578 5.30469 16.6797C5.30469 17.4016 5.89531 17.9922 6.61719 17.9922C7.33906 17.9922 7.92969 17.4016 7.92969 16.6797C7.92969 15.9578 7.33906 15.3672 6.61719 15.3672ZM6.61719 17.1172C6.37656 17.1172 6.17969 16.9203 6.17969 16.6797C6.17969 16.4391 6.37656 16.2422 6.61719 16.2422C6.85781 16.2422 7.05469 16.4391 7.05469 16.6797C7.05469 16.9203 6.85781 17.1172 6.61719 17.1172Z" fill="#121212"/>
</svg>
