<svg width="28" height="28" viewBox="0 0 28 28" fill="none" xmlns="http://www.w3.org/2000/svg">
<path d="M27.4167 2.33337H0.583333C0.428624 2.33337 0.280251 2.39483 0.170854 2.50423C0.0614582 2.61362 0 2.762 0 2.91671L0 20.4167C0 20.5714 0.0614582 20.7198 0.170854 20.8292C0.280251 20.9386 0.428624 21 0.583333 21H10.5V22.2717L5.13333 23.3334C4.97862 23.3643 4.84254 23.4554 4.75503 23.5867C4.66751 23.718 4.63572 23.8787 4.66667 24.0334C4.69761 24.1881 4.78874 24.3242 4.92002 24.4117C5.05129 24.4992 5.21196 24.531 5.36667 24.5C12.2967 23.1117 9.66 23.3334 16.8583 23.3334C23.0533 24.57 22.6917 24.5 22.75 24.5C22.9047 24.5155 23.0592 24.4689 23.1796 24.3704C23.2999 24.272 23.3762 24.1297 23.3917 23.975C23.4071 23.8203 23.3605 23.6658 23.2621 23.5455C23.1636 23.4251 23.0214 23.3488 22.8667 23.3334L17.5 22.2717V21H27.4167C27.5714 21 27.7197 20.9386 27.8291 20.8292C27.9385 20.7198 28 20.5714 28 20.4167V2.91671C28 2.762 27.9385 2.61362 27.8291 2.50423C27.7197 2.39483 27.5714 2.33337 27.4167 2.33337ZM26.8333 3.50004V17.5H1.16667V3.50004H26.8333ZM1.16667 18.6667H2.33333V19.8334H1.16667V18.6667ZM16.3333 22.1667H11.6667V21H16.3333V22.1667ZM3.5 19.8334V18.6667H26.8333V19.8334H3.5Z" fill="black"/>
</svg>
