<svg width="28" height="28" viewBox="0 0 28 28" fill="none" xmlns="http://www.w3.org/2000/svg">
<path d="M17.8402 7.22607H8.80796C8.05976 7.22607 7.45312 7.83271 7.45312 8.58091V19.4196C7.45312 20.1678 8.05976 20.7745 8.80796 20.7745H17.8402C18.5884 20.7745 19.1951 20.1678 19.1951 19.4196V8.58091C19.1951 7.83271 18.5884 7.22607 17.8402 7.22607ZM18.2918 19.4196C18.2918 19.669 18.0896 19.8712 17.8402 19.8712H8.80796C8.55856 19.8712 8.35635 19.669 8.35635 19.4196V8.58091C8.35635 8.33151 8.55856 8.1293 8.80796 8.1293H17.8402C18.0896 8.1293 18.2918 8.33151 18.2918 8.58091V19.4196Z" fill="black"/>
<path d="M21.9026 13.0968C22.152 13.0968 22.3542 12.8946 22.3542 12.6452V9.48387C22.3542 9.23447 22.152 9.03226 21.9026 9.03226H20.9994V7.67742C20.9961 6.73494 20.4077 5.89346 19.5235 5.5671C19.4869 5.5263 19.4432 5.49234 19.3947 5.46677C19.3795 5.45905 17.8381 4.65924 17.8381 3.6129V0.451613C17.8381 0.202211 17.6359 0 17.3865 0H9.25743C9.00803 0 8.80582 0.202211 8.80582 0.451613V3.6129C8.80582 4.48945 7.68186 5.24868 7.24811 5.46721C7.20026 5.49257 7.15726 5.5263 7.12131 5.5671C6.23683 5.89324 5.64806 6.73472 5.64453 7.67742V20.3226C5.64784 21.2651 6.23617 22.1065 7.12043 22.4329C7.15704 22.4737 7.2007 22.5077 7.24921 22.5332C7.26443 22.541 8.80582 23.3408 8.80582 24.3871V27.5484C8.80582 27.7978 9.00803 28 9.25743 28H17.3865C17.6359 28 17.8381 27.7978 17.8381 27.5484V24.3871C17.8381 23.5106 18.962 22.7513 19.3958 22.5328C19.4436 22.5074 19.4866 22.4737 19.5226 22.4329C20.4071 22.1068 20.9958 21.2653 20.9994 20.3226V18.9677H21.9026C22.152 18.9677 22.3542 18.7655 22.3542 18.5161V15.3548C22.3542 15.1054 22.152 14.9032 21.9026 14.9032H20.9994V13.0968H21.9026ZM21.451 9.93548V12.1935H20.9994V9.93548H21.451ZM9.70905 3.6129V0.903226H16.9349V3.6129C16.9719 4.30885 17.2886 4.96024 17.8127 5.41935H8.83118C9.35534 4.96024 9.672 4.30885 9.70905 3.6129ZM16.9349 24.3871V27.0968H9.70905V24.3871C9.672 23.6912 9.35534 23.0398 8.83118 22.5806H17.8127C17.2886 23.0398 16.9719 23.6912 16.9349 24.3871ZM20.0961 20.3226C20.0961 21.0708 19.4895 21.6774 18.7413 21.6774H7.9026C7.15439 21.6774 6.54776 21.0708 6.54776 20.3226V7.67742C6.54776 6.92921 7.15439 6.32258 7.9026 6.32258H18.7413C19.4895 6.32258 20.0961 6.92921 20.0961 7.67742V20.3226ZM21.451 15.8065V18.0645H20.9994V15.8065H21.451Z" fill="black"/>
<path d="M13.3208 9.48389C10.8266 9.48389 8.80469 11.5058 8.80469 14C8.80469 16.4943 10.8266 18.5161 13.3208 18.5161C15.8151 18.5161 17.8369 16.4943 17.8369 14C17.8343 11.5069 15.8139 9.48653 13.3208 9.48389ZM13.3208 17.6129C11.3254 17.6129 9.70791 15.9954 9.70791 14C9.70791 12.0046 11.3254 10.3871 13.3208 10.3871C15.3162 10.3871 16.9337 12.0046 16.9337 14C16.9315 15.9943 15.3151 17.6107 13.3208 17.6129Z" fill="black"/>
<path d="M14.3579 12.3251L13.5532 13.1299C13.478 13.1083 13.4004 13.0971 13.3223 13.096C13.3173 13.096 13.3129 13.096 13.3078 13.096L12.3545 11.5072C12.2729 11.3658 12.1214 11.2794 11.958 11.2812C11.7948 11.2831 11.6453 11.3729 11.567 11.5162C11.4888 11.6596 11.4938 11.834 11.5805 11.9725L12.5351 13.5639C12.4599 13.6967 12.4198 13.8466 12.4191 13.9992C12.4191 14.498 12.8235 14.9024 13.3223 14.9024C13.8211 14.9024 14.2256 14.498 14.2256 13.9992C14.2245 13.9211 14.2132 13.8435 14.1916 13.7683L14.9965 12.9637C15.1676 12.7864 15.1652 12.5048 14.991 12.3306C14.8168 12.1564 14.5352 12.1539 14.3579 12.3251Z" fill="black"/>
</svg>
