<svg width="16" height="18" viewBox="0 0 16 18" fill="none" xmlns="http://www.w3.org/2000/svg">
<path d="M2.86744 2.80692C5.70112 -0.0267593 10.2954 -0.0267593 13.1291 2.80692C15.9628 5.64059 15.9628 10.2349 13.1291 13.0686L12.1399 14.0468C11.4109 14.7624 10.4649 15.6823 9.30174 16.807C8.57487 17.5098 7.42168 17.5097 6.69492 16.8068L3.78567 13.9769C3.42003 13.6178 3.11398 13.3151 2.86744 13.0686C0.0337686 10.2349 0.0337686 5.64059 2.86744 2.80692ZM12.2452 3.6908C9.89969 1.34528 6.09685 1.34528 3.75133 3.6908C1.40581 6.03632 1.40581 9.83916 3.75133 12.1847L4.99056 13.4076C5.67298 14.0754 6.53086 14.9091 7.56393 15.9083C7.80618 16.1426 8.19058 16.1426 8.43287 15.9083L11.2619 13.1571C11.6527 12.7735 11.9805 12.4494 12.2452 12.1847C14.5907 9.83916 14.5907 6.03632 12.2452 3.6908ZM7.99827 5.6658C9.37969 5.6658 10.4996 6.78566 10.4996 8.16709C10.4996 9.54851 9.37969 10.6684 7.99827 10.6684C6.61684 10.6684 5.49697 9.54851 5.49697 8.16709C5.49697 6.78566 6.61684 5.6658 7.99827 5.6658ZM7.99827 6.9158C7.3072 6.9158 6.74697 7.47602 6.74697 8.16709C6.74697 8.85816 7.3072 9.41838 7.99827 9.41838C8.68934 9.41838 9.24956 8.85816 9.24956 8.16709C9.24956 7.47602 8.68934 6.9158 7.99827 6.9158Z" fill="#212121"/>
</svg>
