<svg width="28" height="22" viewBox="0 0 28 22" fill="none" xmlns="http://www.w3.org/2000/svg">
<path d="M25.4251 4.32672C25.3227 3.92939 24.0316 2.62939 23.6987 2.53739C23.1097 2.37339 20.2388 2.00006 14.1736 2.00006C8.10835 2.00006 5.24018 2.37339 4.64579 2.53739C4.31692 2.62806 3.02579 3.92806 2.92201 4.32672C2.77509 4.89206 2.39096 7.26139 2.39096 11.0001C2.39096 14.7387 2.77509 17.1067 2.92201 17.6747C3.02444 18.0707 4.31557 19.3707 4.64714 19.4614C5.24018 19.6267 8.10835 20.0001 14.1736 20.0001C20.2388 20.0001 23.1083 19.6267 23.7014 19.4627C24.0302 19.3721 25.3214 18.0721 25.4251 17.6734C25.572 17.1081 25.9562 14.7334 25.9562 11.0001C25.9562 7.26672 25.572 4.89339 25.4251 4.32672ZM27.0359 3.66406C27.6518 6.04006 27.6518 11.0001 27.6518 11.0001C27.6518 11.0001 27.6518 15.9601 27.0359 18.3361C26.6935 19.6494 25.6921 20.6827 24.4238 21.0321C22.1203 21.6667 14.1736 21.6667 14.1736 21.6667C14.1736 21.6667 6.23083 21.6667 3.92336 21.0321C2.64966 20.6774 1.64957 19.6454 1.31127 18.3361C0.695313 15.9601 0.695312 11.0001 0.695312 11.0001C0.695312 11.0001 0.695313 6.04006 1.31127 3.66406C1.65362 2.35072 2.65505 1.31739 3.92336 0.968058C6.23083 0.333391 14.1736 0.333391 14.1736 0.333391C14.1736 0.333391 22.1203 0.333391 24.4238 0.968058C25.6975 1.32272 26.6976 2.35472 27.0359 3.66406ZM11.4779 15.6667V6.33339L19.5649 11.0001L11.4779 15.6667Z" fill="#D7364F"/>
</svg>
