<svg width="28" height="25" viewBox="0 0 28 25" fill="none" xmlns="http://www.w3.org/2000/svg">
<path d="M11.3327 20.0047C12.4373 20.0047 13.3327 20.9001 13.3327 22.0047C13.3327 23.1092 12.4373 24.0047 11.3327 24.0047C10.2281 24.0047 9.33268 23.1092 9.33268 22.0047C9.33268 20.9001 10.2281 20.0047 11.3327 20.0047ZM19.3327 20.0047C20.4373 20.0047 21.3327 20.9001 21.3327 22.0047C21.3327 23.1092 20.4373 24.0047 19.3327 24.0047C18.2281 24.0047 17.3327 23.1092 17.3327 22.0047C17.3327 20.9001 18.2281 20.0047 19.3327 20.0047ZM1.66602 0H2.14911C3.49368 0 4.66397 0.892642 5.0314 2.16762L5.08509 2.38357L5.14335 2.66533L26.3311 2.66608C26.9584 2.66608 27.4308 3.23686 27.3135 3.85305L25.1642 15.1461C24.7751 17.1901 22.9882 18.6691 20.9074 18.6692L9.75796 18.6696C7.67725 18.6696 5.8902 17.1909 5.50097 15.1469L3.35033 3.85315L3.12777 2.79452C3.04028 2.37783 2.70076 2.06762 2.28884 2.00975L2.14911 2H1.66602C1.11373 2 0.666016 1.55228 0.666016 1C0.666016 0.493739 1.04222 0.0753454 1.53032 0.00912889L1.66602 0ZM25.1229 4.66608H5.54108L7.46566 14.7728C7.67525 15.8734 8.63751 16.6696 9.75789 16.6696L20.9073 16.6692C22.0277 16.6692 22.99 15.8728 23.1994 14.7721L25.1229 4.66608Z" fill="#5F3EC0"/>
</svg>
