<svg width="27" height="28" viewBox="0 0 27 28" fill="none" xmlns="http://www.w3.org/2000/svg">
<path d="M13.6685 0.666061C15.6949 0.666061 17.3377 2.3088 17.3377 4.33522V23.6666C17.3377 25.693 15.6949 27.3358 13.6685 27.3358C11.6421 27.3358 9.99935 25.693 9.99935 23.6666V4.33522C9.99935 2.3088 11.6421 0.666061 13.6685 0.666061ZM23.0018 7.33273C25.0283 7.33273 26.671 8.97547 26.671 11.0019V23.6666C26.671 25.693 25.0283 27.3358 23.0018 27.3358C20.9754 27.3358 19.3327 25.693 19.3327 23.6666V11.0019C19.3327 8.97547 20.9754 7.33273 23.0018 7.33273ZM4.33518 13.9994C6.3616 13.9994 8.00434 15.6421 8.00434 17.6686V23.6666C8.00434 25.693 6.3616 27.3358 4.33518 27.3358C2.30875 27.3358 0.666016 25.693 0.666016 23.6666V17.6686C0.666016 15.6421 2.30875 13.9994 4.33518 13.9994ZM13.6685 2.66606C12.7467 2.66606 11.9993 3.41337 11.9993 4.33522V23.6666C11.9993 24.5885 12.7467 25.3358 13.6685 25.3358C14.5904 25.3358 15.3377 24.5885 15.3377 23.6666V4.33522C15.3377 3.41337 14.5904 2.66606 13.6685 2.66606ZM23.0018 9.33273C22.08 9.33273 21.3327 10.08 21.3327 11.0019V23.6666C21.3327 24.5885 22.08 25.3358 23.0018 25.3358C23.9237 25.3358 24.671 24.5885 24.671 23.6666V11.0019C24.671 10.08 23.9237 9.33273 23.0018 9.33273ZM4.33518 15.9994C3.41332 15.9994 2.66602 16.7467 2.66602 17.6686V23.6666C2.66602 24.5885 3.41332 25.3358 4.33518 25.3358C5.25703 25.3358 6.00434 24.5885 6.00434 23.6666V17.6686C6.00434 16.7467 5.25703 15.9994 4.33518 15.9994Z" fill="#5F3EC0"/>
</svg>
