<svg width="28" height="24" viewBox="0 0 28 24" fill="none" xmlns="http://www.w3.org/2000/svg">
<path d="M15.0922 2.43946L13.9979 3.53614L12.9003 2.43847C10.1015 -0.36029 5.56384 -0.36029 2.76508 2.43847C-0.0336737 5.23723 -0.0336737 9.77491 2.76508 12.5737L13.2922 23.1008C13.6828 23.4913 14.3159 23.4913 14.7065 23.1008L25.2417 12.5717C28.0343 9.76367 28.0391 5.23872 25.2398 2.43946C22.4359 -0.364394 17.8961 -0.36439 15.0922 2.43946ZM23.8236 11.1614L13.9993 20.9795L4.1793 11.1595C2.16159 9.14174 2.16159 5.87039 4.1793 3.85268C6.19701 1.83497 9.46836 1.83497 11.4861 3.85268L13.296 5.66261C13.6931 6.05976 14.3394 6.05202 14.7269 5.64547L16.5065 3.85367C18.5293 1.83087 21.8028 1.83087 23.8256 3.85367C25.8438 5.87187 25.8403 9.13351 23.8236 11.1614Z" fill="#5F3EC0"/>
</svg>
