<svg width="28" height="26" viewBox="0 0 28 26" fill="none" xmlns="http://www.w3.org/2000/svg">
<path d="M3.33268 14.6653L15.3327 14.6667C16.7378 14.6667 17.8902 15.754 17.992 17.1342L17.9993 17.3333V19.3333C17.998 24 13.0447 25.3333 9.33268 25.3333C5.70317 25.3333 0.885609 24.0586 0.673288 19.6395L0.666016 19.3333V17.332C0.666016 15.9269 1.75454 14.7745 3.13376 14.6727L3.33268 14.6653ZM18.2927 14.6667H24.666C26.0711 14.6667 27.2235 15.7552 27.3254 17.1344L27.3327 17.3333V18.6667C27.3313 22.7493 23.522 24 20.666 24C19.7593 24 18.758 23.872 17.8127 23.5707C18.2607 23.056 18.622 22.468 18.882 21.8013C19.606 21.968 20.286 22 20.666 22L21.0214 21.9921C22.3351 21.9345 25.1365 21.5075 25.3229 18.94L25.3327 18.6667V17.3333C25.3327 17.0062 25.0956 16.7339 24.7854 16.6774L24.666 16.6667H19.2647C19.1527 15.9982 18.8733 15.3909 18.472 14.8798L18.2927 14.6667H24.666H18.2927ZM3.33268 16.6653L3.19847 16.6787C3.03263 16.7124 2.91935 16.8024 2.86068 16.86C2.80308 16.9187 2.71306 17.0311 2.67935 17.1973L2.66602 17.332V19.3333C2.66602 20.6787 3.26602 21.6293 4.55535 22.3227C5.65689 22.9159 7.22536 23.2751 8.90945 23.3268L9.33268 23.3333L9.75589 23.3268C11.4398 23.2751 13.0072 22.9159 14.11 22.3227C15.3175 21.6727 15.9215 20.7965 15.9923 19.5799L15.9993 19.332V17.3333C15.9993 17.0062 15.7623 16.7339 15.4521 16.6774L15.3327 16.6667L3.33268 16.6653ZM9.33268 0C12.646 0 15.3327 2.68667 15.3327 6C15.3327 9.31333 12.646 12 9.33268 12C6.01935 12 3.33268 9.31333 3.33268 6C3.33268 2.68667 6.01935 0 9.33268 0ZM21.3327 2.66667C23.91 2.66667 25.9993 4.756 25.9993 7.33333C25.9993 9.91067 23.91 12 21.3327 12C18.7553 12 16.666 9.91067 16.666 7.33333C16.666 4.756 18.7553 2.66667 21.3327 2.66667ZM9.33268 2C7.12735 2 5.33268 3.79467 5.33268 6C5.33268 8.20533 7.12735 10 9.33268 10C11.538 10 13.3327 8.20533 13.3327 6C13.3327 3.79467 11.538 2 9.33268 2ZM21.3327 4.66667C19.862 4.66667 18.666 5.86267 18.666 7.33333C18.666 8.804 19.862 10 21.3327 10C22.8033 10 23.9993 8.804 23.9993 7.33333C23.9993 5.86267 22.8033 4.66667 21.3327 4.66667Z" fill="#5F3EC0"/>
</svg>
